<svg width="370" height="438" viewBox="0 0 370 438" fill="none" xmlns="http://www.w3.org/2000/svg">
<g filter="url(#filter0_d_519_30)">
<rect x="19.9033" y="19" width="331.097" height="399.002" rx="32" fill="white"/>
</g>
<path d="M319.369 19H50.6438C33.1979 19 19.0093 33.2738 19.0093 50.8194V75.9939C10.0518 76.8627 3 84.3913 3 93.626C3 102.863 10.0518 110.383 19.0093 111.255V131.483C10.0518 132.36 3 139.88 3 149.117C3 158.352 10.0518 165.876 19.0093 166.746V188.3C10.0518 189.171 3 196.695 3 205.929C3 215.166 10.0518 222.688 19.0093 223.561V243.794C10.0518 244.664 3 252.189 3 261.423C3 270.663 10.0518 278.182 19.0093 279.063V299.016C10.0518 299.893 3 307.417 3 316.65C3 325.885 10.0518 333.409 19.0093 334.28V387.183C19.0093 404.731 33.2048 419 50.6438 419H319.369C336.813 419 351 404.727 351 387.183V50.8145C351 33.2738 336.813 19 319.369 19ZM19.0044 325.186C15.0348 324.392 12.0347 320.862 12.0347 316.641C12.0347 312.419 15.0348 308.89 19.0044 308.101V325.186ZM19.0044 269.963C15.0348 269.167 12.0347 265.64 12.0347 261.423C12.0347 257.201 15.0348 253.679 19.0044 252.883V269.963ZM19.0044 214.469C15.0348 213.673 12.0347 210.149 12.0347 205.929C12.0347 201.705 15.0348 198.18 19.0044 197.389V214.469ZM19.0044 157.653C15.0348 156.859 12.0347 153.336 12.0347 149.117C12.0347 144.893 15.0348 141.367 19.0044 140.574V157.653ZM19.0093 102C15.0397 101.202 12.0347 97.8454 12.0347 93.6211C12.4457 86.5 19.0093 85.5 19.0093 85.5V102ZM332.926 387.184C332.926 394.697 326.839 400.817 319.369 400.817H50.6438C43.1698 400.817 37.0864 394.696 37.0864 387.184V334.447H40.7661C42.3277 340.519 47.7583 345.021 54.2922 345.021C62.033 345.021 68.3088 338.712 68.3088 330.932C68.3088 323.143 62.033 316.829 54.2922 316.829C48.5196 316.829 43.5708 320.34 41.4248 325.352H37.0874V279.223H40.7661C42.3277 285.302 47.7583 289.804 54.2922 289.804C62.033 289.804 68.3088 283.495 68.3088 275.707C68.3088 267.92 62.033 261.605 54.2922 261.605C48.5196 261.605 43.5708 265.112 41.4248 270.123H37.0874V223.733L40.7661 223.839C42.7313 229.227 47.8414 233.099 53.8808 233.099C61.6215 233.099 67.8974 226.788 67.8974 218.998C67.8974 211.21 61.6215 204.9 53.8808 204.9C47.6225 204.9 42.3815 209.051 40.5794 214.746L37.0874 214.641V166.915H40.4152C42.0414 172.892 47.4231 177.309 53.8808 177.309C61.6215 177.309 67.8974 170.997 67.8974 163.21C67.8974 155.423 61.6215 149.112 53.8808 149.112C48.0358 149.112 43.0392 152.712 40.9351 157.824H37.0874V111.42H40.4152C41.2205 118.433 48.0104 121.427 55.2 121.427C62.9408 121.427 67.8974 114.652 67.8974 106.864C67.8974 99.077 61.1657 94.0015 53.8808 95.2136C48.7371 94.0015 43.4135 98.3574 40.9351 102.329H37.0874V50.8145C37.0874 43.2987 43.1698 37.1776 50.6448 37.1776H319.37C326.84 37.1776 332.927 43.2987 332.927 50.8145L332.926 387.184ZM289.175 97.6408C289.175 101.408 286.142 104.458 282.395 104.458H117.343C113.597 104.458 110.563 101.408 110.563 97.6408C110.563 93.8736 113.597 90.8218 117.343 90.8218H282.394C286.141 90.8149 289.175 93.8677 289.175 97.6408ZM270.128 156.123C270.128 159.89 267.093 162.94 263.348 162.94H136.045C132.3 162.94 129.266 159.89 129.266 156.123C129.266 152.356 132.3 149.304 136.045 149.304H263.347C267.093 149.298 270.128 152.35 270.128 156.123ZM270.129 212.181C270.129 215.945 267.094 218.998 263.349 218.998H136.045C132.3 218.998 129.266 215.945 129.266 212.181C129.266 208.414 132.3 205.362 136.045 205.362H263.348C267.094 205.362 270.129 208.414 270.129 212.181ZM270.13 266.726C270.13 270.495 267.095 273.545 263.35 273.545H136.045C132.3 273.545 129.266 270.494 129.266 266.726C129.266 262.96 132.3 259.911 136.045 259.911H263.349C267.095 259.907 270.13 262.956 270.13 266.726Z" fill="#004E64" fill-opacity="0.2"/>
<defs>
<filter id="filter0_d_519_30" x="0.90332" y="0" width="369.097" height="437.002" filterUnits="userSpaceOnUse" color-interpolation-filters="sRGB">
<feFlood flood-opacity="0" result="BackgroundImageFix"/>
<feColorMatrix in="SourceAlpha" type="matrix" values="0 0 0 0 0 0 0 0 0 0 0 0 0 0 0 0 0 0 127 0" result="hardAlpha"/>
<feOffset/>
<feGaussianBlur stdDeviation="9.5"/>
<feComposite in2="hardAlpha" operator="out"/>
<feColorMatrix type="matrix" values="0 0 0 0 0 0 0 0 0 0 0 0 0 0 0 0 0 0 0.17 0"/>
<feBlend mode="normal" in2="BackgroundImageFix" result="effect1_dropShadow_519_30"/>
<feBlend mode="normal" in="SourceGraphic" in2="effect1_dropShadow_519_30" result="shape"/>
</filter>
</defs>
</svg>