<?xml version="1.0" encoding="utf-8"?>
<svg width="370" height="438" viewBox="2.971 17.879 348.93 401.193" fill="none" xmlns="http://www.w3.org/2000/svg">
  <g filter="url(#filter0_d_519_30)">
    <rect x="19.9033" y="19" width="331.097" height="399.002" rx="32" fill="white"/>
  </g>
  <path d="M 319.369 19 L 50.644 19 C 33.198 19 19.009 33.274 19.009 50.819 L 19.009 75.994 C 10.052 76.863 3 84.391 3 93.626 C 3 102.863 10.052 110.383 19.009 111.255 L 19.009 131.483 C 10.052 132.36 3 139.88 3 149.117 C 3 158.352 10.052 165.876 19.009 166.746 L 19.009 188.3 C 10.052 189.171 3 196.695 3 205.929 C 3 215.166 10.052 222.688 19.009 223.561 L 19.009 243.794 C 10.052 244.664 3 252.189 3 261.423 C 3 270.663 10.052 278.182 19.009 279.063 L 19.009 299.016 C 10.052 299.893 3 307.417 3 316.65 C 3 325.885 10.052 333.409 19.009 334.28 L 19.009 387.183 C 19.009 404.731 33.205 419 50.644 419 L 319.369 419 C 336.813 419 351 404.727 351 387.183 L 351 50.815 C 351 33.274 336.813 19 319.369 19 Z M 19.004 325.186 C 15.035 324.392 12.035 320.862 12.035 316.641 C 12.035 312.419 15.035 308.89 19.004 308.101 L 19.004 325.186 Z M 19.004 269.963 C 15.035 269.167 12.035 265.64 12.035 261.423 C 12.035 257.201 15.035 253.679 19.004 252.883 L 19.004 269.963 Z M 19.004 214.469 C 15.035 213.673 12.035 210.149 12.035 205.929 C 12.035 201.705 15.035 198.18 19.004 197.389 L 19.004 214.469 Z M 19.004 157.653 C 15.035 156.859 12.035 153.336 12.035 149.117 C 12.035 144.893 15.035 141.367 19.004 140.574 L 19.004 157.653 Z M 19.009 102 C 15.04 101.202 12.035 97.845 12.035 93.621 C 12.446 86.5 19.009 85.5 19.009 85.5 L 19.009 102 Z M 332.926 387.184 C 332.926 394.697 326.839 400.817 319.369 400.817 L 50.644 400.817 C 43.17 400.817 37.086 394.696 37.086 387.184 L 37.086 334.447 L 40.766 334.447 C 42.328 340.519 47.758 345.021 54.292 345.021 C 62.033 345.021 68.309 338.712 68.309 330.932 C 68.309 323.143 62.033 316.829 54.292 316.829 C 48.52 316.829 43.571 320.34 41.425 325.352 L 37.087 325.352 L 37.087 279.223 L 40.766 279.223 C 42.328 285.302 47.758 289.804 54.292 289.804 C 62.033 289.804 68.309 283.495 68.309 275.707 C 68.309 267.92 62.033 261.605 54.292 261.605 C 48.52 261.605 43.571 265.112 41.425 270.123 L 37.087 270.123 L 37.087 223.733 L 40.766 223.839 C 42.731 229.227 47.841 233.099 53.881 233.099 C 61.622 233.099 67.897 226.788 67.897 218.998 C 67.897 211.21 61.622 204.9 53.881 204.9 C 47.623 204.9 42.382 209.051 40.579 214.746 L 37.087 214.641 L 37.087 166.915 L 40.415 166.915 C 42.041 172.892 47.423 177.309 53.881 177.309 C 61.622 177.309 67.897 170.997 67.897 163.21 C 67.897 155.423 61.622 149.112 53.881 149.112 C 48.036 149.112 43.039 152.712 40.935 157.824 L 37.087 157.824 L 37.087 111.42 L 40.415 111.42 C 41.221 118.433 48.01 121.427 55.2 121.427 C 62.941 121.427 67.897 114.652 67.897 106.864 C 67.897 99.077 61.166 94.002 53.881 95.214 C 48.737 94.002 43.414 98.357 40.935 102.329 L 37.087 102.329 L 37.087 50.815 C 37.087 43.299 43.17 37.178 50.645 37.178 L 319.37 37.178 C 326.84 37.178 332.927 43.299 332.927 50.815 L 332.926 387.184 Z M 300 100 C 300 103.767 296.967 106.817 293.22 106.817 L 106.78 106.817 C 103.034 106.817 100 103.767 100 100 C 100 96.233 103.034 93.181 106.78 93.181 L 293.219 93.181 C 296.966 93.174 300 96.227 300 100 Z M 300 156.123 C 300 159.89 296.965 162.94 293.22 162.94 L 112.933 162.94 C 109.188 162.94 106.154 159.89 106.154 156.123 C 106.154 152.356 109.188 149.304 112.933 149.304 L 293.219 149.304 C 296.965 149.298 300 152.35 300 156.123 Z M 300 212.181 C 300 215.945 296.965 218.998 293.22 218.998 L 113.657 218.998 C 109.912 218.998 106.878 215.945 106.878 212.181 C 106.878 208.414 109.912 205.362 113.657 205.362 L 293.219 205.362 C 296.965 205.362 300 208.414 300 212.181 Z M 300 266.726 C 300 270.495 296.965 273.545 293.22 273.545 L 114.019 273.545 C 110.274 273.545 107.24 270.494 107.24 266.726 C 107.24 262.96 110.274 259.911 114.019 259.911 L 293.219 259.911 C 296.965 259.907 300 262.956 300 266.726 Z" fill="#004E64" fill-opacity="0.2"/>
  <defs>
    <filter id="filter0_d_519_30" x="0.90332" y="0" width="369.097" height="437.002" filterUnits="userSpaceOnUse" color-interpolation-filters="sRGB">
      <feFlood flood-opacity="0" result="BackgroundImageFix"/>
      <feColorMatrix in="SourceAlpha" type="matrix" values="0 0 0 0 0 0 0 0 0 0 0 0 0 0 0 0 0 0 127 0" result="hardAlpha"/>
      <feOffset/>
      <feGaussianBlur stdDeviation="9.5"/>
      <feComposite in2="hardAlpha" operator="out"/>
      <feColorMatrix type="matrix" values="0 0 0 0 0 0 0 0 0 0 0 0 0 0 0 0 0 0 0.17 0"/>
      <feBlend mode="normal" in2="BackgroundImageFix" result="effect1_dropShadow_519_30"/>
      <feBlend mode="normal" in="SourceGraphic" in2="effect1_dropShadow_519_30" result="shape"/>
    </filter>
  </defs>
</svg>